<svg width="1442" height="600" viewBox="0 300 1442 600" fill="none" xmlns="http://www.w3.org/2000/svg" preserveAspectRatio="none">
<mask id="mask0" mask-type="alpha" maskUnits="userSpaceOnUse" x="0" y="0" width="1442" height="600">
<rect width="1442" height="650" fill="#C4C4C4"/>
</mask>
<g mask="url(#mask0)">
<path opacity="0.3" d="M1020.03 529.973C1221.2 487.287 1340.98 448.332 1446.29 483.26V1445.78C1231.26 1397.45 1048.11 1439.76 949.821 1451.81C632.133 1490.74 460.367 1445.79 348.034 1426.25C157.067 1393.02 42.1252 1430.86 0.00012207 1440.3V569.373C84.2503 522.173 143.426 512.969 414.23 540.345C676.124 566.821 715.124 594.669 1020.03 529.973Z" fill="white"/>
<g filter="url(#filter0_d)">
<path d="M1020.03 542.994C1221.2 500.308 1340.98 461.352 1446.29 496.281V1726.88C1231.26 1678.55 1048.11 1720.86 949.821 1732.9C632.133 1771.83 460.367 1726.89 348.034 1707.34C157.067 1674.12 42.1252 1711.96 0.00012207 1721.4V582.394C84.2503 535.193 143.426 525.99 414.23 553.366C676.124 579.842 715.124 607.69 1020.03 542.994Z" fill="white"/>
</g>
</g>
<defs>
<filter id="filter0_d" x="-70.1111" y="442.703" width="1606.55" height="1425.77" filterUnits="userSpaceOnUse" color-interpolation-filters="sRGB">
<feFlood flood-opacity="0" result="BackgroundImageFix"/>
<feColorMatrix in="SourceAlpha" type="matrix" values="0 0 0 0 0 0 0 0 0 0 0 0 0 0 0 0 0 0 127 0"/>
<feOffset dx="10.0159" dy="40.0636"/>
<feGaussianBlur stdDeviation="40.0636"/>
<feColorMatrix type="matrix" values="0 0 0 0 0.554375 0 0 0 0 0.623387 0 0 0 0 0.803493 0 0 0 1 0"/>
<feBlend mode="normal" in2="BackgroundImageFix" result="effect1_dropShadow"/>
<feBlend mode="normal" in="SourceGraphic" in2="effect1_dropShadow" result="shape"/>
</filter>
</defs>
</svg>
