<svg width="375" height="356" viewBox="0 0 375 356" fill="none" xmlns="http://www.w3.org/2000/svg">
<path d="M141.118 134.496C228.812 18.9904 347.948 1.02865 396.555 6.48589L434.316 265.249C417.772 265.944 332.982 298.124 292.655 314.127C184.472 351.853 134.966 340.572 120.392 332.559C38.1504 287.335 99.9419 181.673 141.118 134.496Z" fill="url(#paint0_linear)"/>
<path d="M122.654 130.273C223.64 36.7978 338.962 38.5954 384 51.1786L378.925 296.851C363.193 294.934 278.066 311.632 237.468 320.22C129.378 338.436 84.2826 320.22 71.9075 310.633C1.36948 255.986 76.3478 167.623 122.654 130.273Z" fill="url(#paint1_linear)"/>
<rect x="268.748" y="136.679" width="5.59191" height="21.0864" rx="2.79596" fill="white"/>
<rect x="261.004" y="150.019" width="5.59435" height="21.0772" rx="2.79717" transform="rotate(-90 261.004 150.019)" fill="white"/>
<rect x="48.8716" y="116.023" width="3.58456" height="12.91" rx="1.79228" fill="#567FEA"/>
<rect x="44.2114" y="124.271" width="3.58612" height="12.9044" rx="1.79306" transform="rotate(-90 44.2114 124.271)" fill="#567FEA"/>
<rect x="255.843" y="282.132" width="6.88236" height="27.5414" rx="3.44118" fill="#5AD3C0"/>
<rect x="245.519" y="299.346" width="6.88535" height="27.5294" rx="3.44267" transform="rotate(-90 245.519 299.346)" fill="#5AD3C0"/>
<path d="M71.2842 225.247C68.1687 223.303 68.4767 218.67 71.8222 217.155L108.776 200.415C110.177 199.781 111.802 199.889 113.107 200.702L143.21 219.485C146.325 221.428 146.017 226.061 142.672 227.577L105.718 244.316C104.317 244.95 102.692 244.843 101.387 244.029L71.2842 225.247Z" fill="white"/>
<path d="M125.055 197.275C121.939 195.331 122.247 190.698 125.593 189.183L162.547 172.444C163.947 171.809 165.573 171.917 166.877 172.731L196.98 191.513C200.096 193.457 199.788 198.089 196.442 199.605L159.488 216.344C158.087 216.979 156.462 216.871 155.158 216.057L125.055 197.275Z" fill="white"/>
<path d="M194.307 217.931C191.192 215.987 191.5 211.354 194.845 209.839L231.799 193.099C233.2 192.465 234.825 192.573 236.129 193.387L266.233 212.169C269.348 214.113 269.04 218.745 265.695 220.261L228.741 237C227.34 237.635 225.715 237.527 224.41 236.713L194.307 217.931Z" fill="white"/>
<g filter="url(#filter0_f)">
<ellipse cx="228.743" cy="221.455" rx="16.3456" ry="3.44267" fill="#DCE5F1"/>
</g>
<path d="M222.373 219.102C222.104 219.372 222.104 219.809 222.373 220.078C222.643 220.347 223.08 220.347 223.349 220.078L222.373 219.102ZM223.349 220.078L226.862 216.563L225.886 215.588L222.373 219.102L223.349 220.078Z" fill="#4A4A4A"/>
<path d="M236.715 197.295L245.155 205.738C245.873 206.457 245.873 207.621 245.155 208.339L243.646 209.849C242.907 210.588 241.813 210.846 240.822 210.515L240.624 210.45C239.88 210.201 239.06 210.35 238.45 210.844L231.65 216.351C230.081 217.621 227.807 217.502 226.38 216.075C224.954 214.648 224.835 212.375 226.104 210.807L231.611 204.001C232.105 203.391 232.253 202.572 232.005 201.828L231.938 201.627C231.608 200.636 231.866 199.543 232.605 198.804L234.113 197.295C234.832 196.576 235.997 196.576 236.715 197.295Z" fill="#567FEA" fill-opacity="0.3"/>
<ellipse cx="229.389" cy="213.063" rx="1.50552" ry="1.50617" fill="#4A4A4A"/>
<path d="M236.71 197.295L245.15 205.738C245.868 206.457 245.868 207.621 245.15 208.339L244.089 209.4C243.73 209.76 243.147 209.76 242.788 209.4L233.048 199.656C232.689 199.297 232.689 198.715 233.048 198.356L234.108 197.295C234.827 196.576 235.992 196.576 236.71 197.295Z" fill="#567FEA"/>
<path d="M249.968 200.512C249.968 196.076 246.373 192.479 241.938 192.479" stroke="#4A4A4A" stroke-width="1.37961" stroke-linecap="round"/>
<path d="M245.953 200.512C245.953 198.294 244.155 196.495 241.938 196.495" stroke="#4A4A4A" stroke-width="1.37961" stroke-linecap="round"/>
<path d="M149.572 251.067C146.456 249.123 146.764 244.49 150.11 242.975L187.064 226.235C188.464 225.601 190.089 225.709 191.394 226.522L221.497 245.305C224.613 247.248 224.305 251.881 220.959 253.397L184.005 270.136C182.604 270.77 180.979 270.663 179.675 269.849L149.572 251.067Z" fill="white"/>
<g filter="url(#filter1_f)">
<ellipse cx="182.717" cy="252.869" rx="16.3456" ry="3.44267" fill="#DCE5F1"/>
</g>
<mask id="mask0" mask-type="alpha" maskUnits="userSpaceOnUse" x="167" y="223" width="31" height="31">
<rect x="167.662" y="223.607" width="30.1103" height="30.1234" fill="#C4C4C4"/>
</mask>
<g mask="url(#mask0)">
<path d="M175.487 225.345C175.487 224.385 176.265 223.607 177.225 223.607H187.647C188.606 223.607 189.384 224.385 189.384 225.345V225.345C189.384 226.305 188.606 227.083 187.647 227.083H186.489V249.677C186.489 251.916 184.674 253.73 182.436 253.73V253.73C180.197 253.73 178.383 251.916 178.383 249.677V227.083H177.225C176.265 227.083 175.487 226.305 175.487 225.345V225.345Z" fill="#E8EDF9"/>
<path d="M178.385 238.668H186.491V249.676C186.491 251.915 184.677 253.73 182.438 253.73V253.73C180.199 253.73 178.385 251.915 178.385 249.676V238.668Z" fill="#5AD3C0"/>
<path fill-rule="evenodd" clip-rule="evenodd" d="M178.385 229.4H182.728C183.208 229.4 183.597 229.789 183.597 230.268C183.597 230.748 183.208 231.137 182.728 231.137H178.385V229.4ZM178.385 233.455H182.727C183.207 233.455 183.596 233.844 183.596 234.324C183.596 234.804 183.207 235.193 182.727 235.193H178.385V233.455ZM182.727 237.51H178.385V239.248H182.727C183.207 239.248 183.596 238.859 183.596 238.379C183.596 237.899 183.207 237.51 182.727 237.51Z" fill="#4A4A4A"/>
<g style="mix-blend-mode:multiply" opacity="0.5">
<path fill-rule="evenodd" clip-rule="evenodd" d="M182.44 253.73C184.677 253.729 186.491 251.914 186.491 249.677V227.082H187.648C188.608 227.082 189.386 226.304 189.386 225.344C189.386 224.385 188.608 223.607 187.648 223.607H182.44V253.73Z" fill="#DEE6F8"/>
</g>
<rect x="175.487" y="223.607" width="13.8971" height="3.47578" rx="1.73789" fill="#D9E1F6"/>
</g>
<path d="M249.365 245.903C246.249 243.959 246.557 239.326 249.903 237.811L286.857 221.071C288.258 220.437 289.883 220.544 291.187 221.358L321.29 240.141C324.406 242.084 324.098 246.717 320.752 248.233L283.798 264.972C282.398 265.606 280.773 265.499 279.468 264.685L249.365 245.903Z" fill="white"/>
<g filter="url(#filter2_f)">
<ellipse cx="285.093" cy="249.427" rx="16.3456" ry="3.44267" fill="#DCE5F1"/>
</g>
<path d="M291.544 225.317H278.64C276.274 225.317 274.339 227.226 274.339 229.56V242.288C274.339 244.622 276.274 246.531 278.64 246.531H291.544C293.91 246.531 295.846 244.622 295.846 242.288V229.56C295.846 227.226 293.911 225.317 291.544 225.317ZM294.771 238.138H292.384L290.578 241.496C290.426 241.776 290.122 241.935 289.8 241.917C289.481 241.892 289.206 241.681 289.102 241.38L287.754 237.486L286.542 240.324C286.402 240.648 286.069 240.84 285.711 240.807C285.357 240.767 285.069 240.504 285.006 240.158L283.877 233.288L282.531 243.722C282.477 244.108 282.148 244.399 281.753 244.409C281.747 244.409 281.738 244.409 281.732 244.409C281.346 244.409 281.013 244.14 280.94 243.765L279.367 235.682L278.393 237.688C278.258 237.963 277.974 238.139 277.664 238.139H275.414V236.549H277.157L278.971 232.819C279.12 232.509 279.463 232.329 279.801 232.373C280.146 232.418 280.425 232.675 280.491 233.012L281.599 238.711L282.966 228.093C283.02 227.705 283.351 227.449 283.748 227.439C284.122 227.416 284.488 227.708 284.559 228.093L286.107 237.242L287.088 234.944C287.218 234.639 287.515 234.447 287.861 234.458C288.194 234.47 288.487 234.683 288.596 234.996L290.026 239.129L291.188 236.97C291.327 236.711 291.601 236.549 291.9 236.549H294.771V238.138H294.771Z" fill="#ED4C4C"/>
<path d="M180.111 169.733C176.995 167.79 177.303 163.157 180.649 161.641L217.603 144.902C219.003 144.268 220.628 144.375 221.933 145.189L252.036 163.971C255.152 165.915 254.844 170.548 251.498 172.063L214.544 188.803C213.143 189.437 211.518 189.329 210.214 188.516L180.111 169.733Z" fill="white"/>
<path d="M97.9536 134.446C94.8381 132.502 95.1461 127.869 98.4916 126.354L135.446 109.615C136.846 108.98 138.472 109.088 139.776 109.902L169.879 128.684C172.995 130.628 172.687 135.26 169.341 136.776L132.387 153.515C130.986 154.15 129.361 154.042 128.057 153.228L97.9536 134.446Z" fill="white"/>
<path d="M63.1088 173.176C59.9933 171.232 60.3014 166.599 63.6468 165.084L100.601 148.345C102.002 147.71 103.627 147.818 104.931 148.632L135.034 167.414C138.15 169.358 137.842 173.991 134.496 175.506L97.5422 192.245C96.1415 192.88 94.5164 192.772 93.2119 191.958L63.1088 173.176Z" fill="white"/>
<g filter="url(#filter3_f)">
<ellipse cx="99.2675" cy="175.409" rx="16.3456" ry="3.44267" fill="#DCE5F1"/>
</g>
<g filter="url(#filter4_f)">
<ellipse cx="133.251" cy="134.958" rx="16.3456" ry="3.44267" fill="#DCE5F1"/>
</g>
<mask id="mask1" mask-type="alpha" maskUnits="userSpaceOnUse" x="113" y="104" width="31" height="31">
<rect x="113.462" y="104.834" width="30.1103" height="30.1234" fill="#C4C4C4"/>
</mask>
<g mask="url(#mask1)">
<path fill-rule="evenodd" clip-rule="evenodd" d="M138.884 124.401C141.712 122.474 143.568 119.226 143.568 115.545C143.568 109.63 138.775 104.834 132.862 104.834C127.215 104.834 122.589 109.208 122.185 114.754C122.166 114.789 122.156 114.829 122.156 114.875C122.156 116.149 121.349 117.691 120.759 118.82C120.418 119.472 120.149 119.986 120.149 120.231C120.149 121.253 120.93 121.625 121.597 121.942C121.803 122.041 121.998 122.133 122.156 122.239V126.951C122.156 128.35 123.396 129.425 124.781 129.227L126.84 128.933V134.498C126.84 134.752 127.046 134.958 127.3 134.958H138.424C138.678 134.958 138.884 134.752 138.884 134.498V124.401Z" fill="#F1D4BA"/>
<path fill-rule="evenodd" clip-rule="evenodd" d="M118.232 126.321C118.712 126.599 119.315 126.453 119.579 125.995C119.768 125.668 119.854 124.491 119.887 123.849C119.896 123.666 119.699 123.552 119.545 123.652C119.006 124.002 118.03 124.664 117.841 124.991C117.577 125.449 117.752 126.044 118.232 126.321ZM116.014 125.481C115.75 125.939 115.147 126.085 114.667 125.807C114.187 125.53 114.011 124.935 114.275 124.477C114.464 124.15 115.44 123.488 115.98 123.138C116.133 123.038 116.331 123.152 116.321 123.335C116.288 123.977 116.203 125.154 116.014 125.481ZM116.08 129.384C115.816 129.841 115.213 129.987 114.733 129.71C114.253 129.433 114.077 128.837 114.341 128.38C114.53 128.052 115.506 127.39 116.046 127.04C116.199 126.941 116.397 127.055 116.387 127.238C116.354 127.88 116.269 129.057 116.08 129.384Z" fill="#567FEA"/>
</g>
<g filter="url(#filter5_f)">
<ellipse cx="159.919" cy="199.508" rx="16.3456" ry="3.44267" fill="#DCE5F1"/>
</g>
<g filter="url(#filter6_f)">
<ellipse cx="214.979" cy="169.384" rx="16.3456" ry="3.44267" fill="#DCE5F1"/>
</g>
<g filter="url(#filter7_f)">
<ellipse cx="105.291" cy="225.328" rx="16.3456" ry="3.44267" fill="#DCE5F1"/>
</g>
<path fill-rule="evenodd" clip-rule="evenodd" d="M98.9627 213.288L93.0868 216.472C92.119 216.997 91.7311 218.187 92.2042 219.181L92.355 219.498C92.7738 220.378 93.7494 220.846 94.6977 220.623L98.8946 219.635L98.2097 223.575C98.2097 223.575 100.607 226.488 105.402 226.488C110.196 226.488 112.592 223.575 112.592 223.575L111.909 219.635L116.105 220.623C117.054 220.846 118.029 220.378 118.448 219.498L118.599 219.181C119.072 218.187 118.684 216.997 117.716 216.472L111.841 213.289C110.272 215.079 107.969 216.209 105.402 216.209C102.835 216.209 100.532 215.079 98.9627 213.288Z" fill="#E7C2A7"/>
<ellipse cx="105.402" cy="221.348" rx="3.08225" ry="3.76883" fill="#E9CEBA"/>
<ellipse rx="3.08234" ry="4.11133" transform="matrix(0.965898 0.258924 -0.258714 0.965954 109.51 224.432)" fill="#C79978"/>
<ellipse rx="3.08234" ry="4.11133" transform="matrix(0.965898 -0.258924 0.258714 0.965954 101.291 224.432)" fill="#C79978"/>
<path fill-rule="evenodd" clip-rule="evenodd" d="M112.414 206.023C113.355 205.32 113.964 204.197 113.964 202.932C113.964 200.803 112.239 199.078 110.111 199.078C108.846 199.078 107.723 199.688 107.02 200.63C106.501 200.511 105.96 200.448 105.405 200.448C104.847 200.448 104.304 200.512 103.783 200.632C103.08 199.689 101.957 199.078 100.691 199.078C98.563 199.078 96.838 200.804 96.838 202.933C96.838 204.201 97.4502 205.326 98.395 206.028C98.276 206.547 98.2131 207.088 98.2131 207.643C98.2131 211.617 101.433 214.838 105.405 214.838C109.377 214.838 112.597 211.617 112.597 207.643C112.597 207.086 112.534 206.544 112.414 206.023Z" fill="#E7C2A7"/>
<ellipse cx="107.973" cy="206.101" rx="1.02742" ry="1.54179" fill="#4A4A4A"/>
<ellipse cx="102.833" cy="206.101" rx="1.02742" ry="1.54179" fill="#4A4A4A"/>
<ellipse cx="105.403" cy="209.528" rx="3.76719" ry="3.59752" fill="#E9CEBA"/>
<ellipse cx="105.139" cy="207.938" rx="1.02742" ry="1.02786" fill="#C79978"/>
<path fill-rule="evenodd" clip-rule="evenodd" d="M209.726 139.261C208.287 139.261 207.12 140.428 207.12 141.867V158.509C207.12 159.949 208.287 161.115 209.726 161.115H222.817C224.256 161.115 225.422 159.949 225.422 158.509V141.867C225.422 140.428 224.256 139.261 222.817 139.261H209.726ZM211.117 142.214C210.541 142.214 210.074 142.681 210.074 143.256V153.575C210.074 154.151 210.541 154.618 211.117 154.618H221.43C222.006 154.618 222.473 154.151 222.473 153.575V143.256C222.473 142.681 222.006 142.214 221.43 142.214H211.117ZM210.074 157.432C210.074 156.857 210.541 156.39 211.117 156.39H214.345C214.921 156.39 215.388 156.857 215.388 157.432V157.71C215.388 158.286 214.921 158.753 214.345 158.753H211.117C210.541 158.753 210.074 158.286 210.074 157.71V157.432ZM218.196 156.39C217.621 156.39 217.154 156.857 217.154 157.432V157.71C217.154 158.286 217.621 158.753 218.196 158.753H221.425C222.001 158.753 222.468 158.286 222.468 157.71V157.432C222.468 156.857 222.001 156.39 221.425 156.39H218.196Z" fill="#4A4A4A"/>
<path d="M219.517 149.251C219.517 150.91 218.063 152.256 216.27 152.256C214.477 152.256 213.023 150.91 213.023 149.251C213.023 147.928 215.087 145.743 215.924 144.912C216.117 144.72 216.422 144.72 216.616 144.912C217.453 145.743 219.517 147.928 219.517 149.251Z" fill="#ED4C4C"/>
<path d="M215.385 161.115H217.156V168.499C217.156 168.988 216.759 169.385 216.27 169.385V169.385C215.781 169.385 215.385 168.988 215.385 168.499V161.115Z" fill="#4A4A4A"/>
<path d="M153.556 186.215H156.401C157.417 186.215 158.24 187.039 158.24 188.055V198.934" stroke="#4A4A4A" stroke-width="0.919741" stroke-linecap="round" stroke-linejoin="round"/>
<path d="M150.875 194.805L153.003 194.957C154.267 195.047 155.267 194.299 155.777 193.32C156.285 192.344 156.344 191.075 155.681 190.033C155.209 189.291 154.789 188.534 154.488 187.814C154.185 187.09 154.016 186.432 154.016 185.881C154.016 185.33 154.185 184.672 154.488 183.947C154.789 183.228 155.209 182.471 155.681 181.729C156.344 180.687 156.285 179.418 155.777 178.442C155.267 177.463 154.267 176.715 153.003 176.805L150.875 176.957C149.882 177.028 148.928 177.501 148.354 178.366C147.351 179.874 145.736 182.777 145.736 185.881C145.736 188.985 147.351 191.888 148.354 193.396C148.928 194.261 149.882 194.734 150.875 194.805Z" fill="#ED4C4C" stroke="#ED4C4C" stroke-width="0.919741"/>
<path d="M166.274 186.216H163.43C162.414 186.216 161.59 187.039 161.59 188.055V198.934" stroke="#4A4A4A" stroke-width="0.919741" stroke-linecap="round" stroke-linejoin="round"/>
<path d="M168.955 194.805L166.827 194.957C165.563 195.047 164.563 194.299 164.053 193.32C163.545 192.344 163.486 191.075 164.149 190.033C164.621 189.291 165.041 188.534 165.342 187.814C165.644 187.09 165.814 186.432 165.814 185.881C165.814 185.329 165.644 184.672 165.342 183.947C165.041 183.228 164.621 182.471 164.149 181.729C163.486 180.687 163.545 179.418 164.053 178.442C164.563 177.462 165.563 176.714 166.827 176.805L168.955 176.957C169.948 177.028 170.902 177.501 171.476 178.366C172.478 179.874 174.094 182.777 174.094 185.881C174.094 188.984 172.478 191.887 171.476 193.396C170.902 194.261 169.948 194.734 168.955 194.805Z" fill="#ED4C4C" stroke="#ED4C4C" stroke-width="0.919741"/>
<mask id="mask2" mask-type="alpha" maskUnits="userSpaceOnUse" x="84" y="146" width="31" height="31">
<rect x="84.6446" y="146.577" width="30.1103" height="30.1234" fill="#C4C4C4"/>
</mask>
<g mask="url(#mask2)">
<path fill-rule="evenodd" clip-rule="evenodd" d="M87.4377 150.482C90.8248 147.093 96.316 147.093 99.7036 150.48C103.091 147.093 108.582 147.094 111.969 150.482C114.901 153.415 115.295 157.926 113.152 161.283H103.383C103.095 161.283 102.838 161.461 102.737 161.731L101.473 165.102L98.6947 155.094C98.6155 154.809 98.3633 154.606 98.0678 154.59C97.7723 154.574 97.4994 154.748 97.3895 155.023L94.8864 161.283H86.2551C84.1115 157.926 84.5057 153.415 87.4377 150.482ZM87.3478 162.663C87.3774 162.693 87.4073 162.724 87.4374 162.754L87.4369 162.754L98.7286 174.051C99.2673 174.59 100.141 174.59 100.679 174.051L111.971 162.754L111.97 162.753C112 162.723 112.03 162.693 112.059 162.663H103.861L102.022 167.57C101.917 167.85 101.644 168.03 101.345 168.017C101.047 168.004 100.791 167.801 100.711 167.513L97.912 157.432L95.994 162.229C95.8893 162.491 95.6356 162.663 95.3535 162.663H87.3478Z" fill="#ED4C4C"/>
</g>
<path opacity="0.2" d="M280.766 200.287C277.651 198.343 277.959 193.71 281.304 192.195L318.258 175.456C319.659 174.821 321.284 174.929 322.589 175.743L352.692 194.525C355.807 196.469 355.499 201.102 352.154 202.617L315.2 219.356C313.799 219.991 312.174 219.883 310.869 219.069L280.766 200.287Z" fill="white"/>
<path opacity="0.1" d="M5.04087 199.427C1.9254 197.483 2.23344 192.85 5.57891 191.335L42.533 174.595C43.9338 173.961 45.5588 174.068 46.8633 174.882L76.9665 193.665C80.0819 195.608 79.7739 200.241 76.4284 201.757L39.4743 218.496C38.0735 219.13 36.4485 219.023 35.144 218.209L5.04087 199.427Z" fill="white"/>
<path opacity="0.2" d="M299.692 277.747C296.576 275.803 296.884 271.171 300.23 269.655L337.184 252.916C338.585 252.281 340.21 252.389 341.514 253.203L371.617 271.985C374.733 273.929 374.425 278.562 371.079 280.077L334.125 296.817C332.724 297.451 331.099 297.343 329.795 296.529L299.692 277.747Z" fill="white"/>
<defs>
<filter id="filter0_f" x="210.558" y="216.172" width="36.3702" height="10.5643" filterUnits="userSpaceOnUse" color-interpolation-filters="sRGB">
<feFlood flood-opacity="0" result="BackgroundImageFix"/>
<feBlend mode="normal" in="SourceGraphic" in2="BackgroundImageFix" result="shape"/>
<feGaussianBlur stdDeviation="0.919741" result="effect1_foregroundBlur"/>
</filter>
<filter id="filter1_f" x="164.532" y="247.587" width="36.3702" height="10.5643" filterUnits="userSpaceOnUse" color-interpolation-filters="sRGB">
<feFlood flood-opacity="0" result="BackgroundImageFix"/>
<feBlend mode="normal" in="SourceGraphic" in2="BackgroundImageFix" result="shape"/>
<feGaussianBlur stdDeviation="0.919741" result="effect1_foregroundBlur"/>
</filter>
<filter id="filter2_f" x="266.908" y="244.145" width="36.3702" height="10.5643" filterUnits="userSpaceOnUse" color-interpolation-filters="sRGB">
<feFlood flood-opacity="0" result="BackgroundImageFix"/>
<feBlend mode="normal" in="SourceGraphic" in2="BackgroundImageFix" result="shape"/>
<feGaussianBlur stdDeviation="0.919741" result="effect1_foregroundBlur"/>
</filter>
<filter id="filter3_f" x="81.0824" y="170.127" width="36.3702" height="10.5643" filterUnits="userSpaceOnUse" color-interpolation-filters="sRGB">
<feFlood flood-opacity="0" result="BackgroundImageFix"/>
<feBlend mode="normal" in="SourceGraphic" in2="BackgroundImageFix" result="shape"/>
<feGaussianBlur stdDeviation="0.919741" result="effect1_foregroundBlur"/>
</filter>
<filter id="filter4_f" x="115.066" y="129.676" width="36.3702" height="10.5643" filterUnits="userSpaceOnUse" color-interpolation-filters="sRGB">
<feFlood flood-opacity="0" result="BackgroundImageFix"/>
<feBlend mode="normal" in="SourceGraphic" in2="BackgroundImageFix" result="shape"/>
<feGaussianBlur stdDeviation="0.919741" result="effect1_foregroundBlur"/>
</filter>
<filter id="filter5_f" x="141.734" y="194.226" width="36.3702" height="10.5643" filterUnits="userSpaceOnUse" color-interpolation-filters="sRGB">
<feFlood flood-opacity="0" result="BackgroundImageFix"/>
<feBlend mode="normal" in="SourceGraphic" in2="BackgroundImageFix" result="shape"/>
<feGaussianBlur stdDeviation="0.919741" result="effect1_foregroundBlur"/>
</filter>
<filter id="filter6_f" x="196.794" y="164.102" width="36.3702" height="10.5643" filterUnits="userSpaceOnUse" color-interpolation-filters="sRGB">
<feFlood flood-opacity="0" result="BackgroundImageFix"/>
<feBlend mode="normal" in="SourceGraphic" in2="BackgroundImageFix" result="shape"/>
<feGaussianBlur stdDeviation="0.919741" result="effect1_foregroundBlur"/>
</filter>
<filter id="filter7_f" x="87.1063" y="220.046" width="36.3702" height="10.5643" filterUnits="userSpaceOnUse" color-interpolation-filters="sRGB">
<feFlood flood-opacity="0" result="BackgroundImageFix"/>
<feBlend mode="normal" in="SourceGraphic" in2="BackgroundImageFix" result="shape"/>
<feGaussianBlur stdDeviation="0.919741" result="effect1_foregroundBlur"/>
</filter>
<linearGradient id="paint0_linear" x1="371.2" y1="37.0225" x2="138.432" y2="313.644" gradientUnits="userSpaceOnUse">
<stop stop-color="#EDFFFC"/>
<stop offset="1" stop-color="#BBDBF7"/>
</linearGradient>
<linearGradient id="paint1_linear" x1="213.5" y1="45" x2="120.536" y2="231.616" gradientUnits="userSpaceOnUse">
<stop stop-color="#5AD3C0" stop-opacity="0.14"/>
<stop offset="1" stop-color="#567FEA"/>
</linearGradient>
</defs>
</svg>
